<svg xmlns="http://www.w3.org/2000/svg" viewBox="0 0 64 64" role="img" aria-label="Statistico">
  <defs>
    <linearGradient id="s-blue" x1="0%" y1="0%" x2="0%" y2="100%">
      <stop offset="0%" stop-color="#2d76ff"/>
      <stop offset="100%" stop-color="#0ea5e9"/>
    </linearGradient>
    <linearGradient id="s-teal" x1="0%" y1="0%" x2="0%" y2="100%">
      <stop offset="0%" stop-color="#51f0dc"/>
      <stop offset="100%" stop-color="#00a8b5"/>
    </linearGradient>
  </defs>
  <path d="M52 12 C52 5 42 2 32 2 C18 2 8 10 8 21 C8 31 18 36 32 36"
        stroke="url(#s-blue)" stroke-width="9" fill="none" stroke-linecap="round"/>
  <path d="M32 36 C46 36 56 41 56 51 C56 61 45 66 32 66 C18 66 9 60 8 50"
        stroke="url(#s-blue)" stroke-width="9" fill="none" stroke-linecap="round"/>
  <rect x="17" y="42" width="7" height="17" rx="2" fill="url(#s-teal)"/>
  <rect x="28" y="35" width="7" height="24" rx="2" fill="url(#s-teal)"/>
  <rect x="39" y="27" width="7" height="32" rx="2" fill="url(#s-teal)"/>
  <rect x="50" y="20" width="7" height="39" rx="2" fill="url(#s-teal)"/>
</svg>
