<svg xmlns="http://www.w3.org/2000/svg" viewBox="0 0 72 88" role="img" aria-label="Statistico">
  <defs>
    <linearGradient id="s-blue" x1="0%" y1="0%" x2="0%" y2="100%">
      <stop offset="0%" stop-color="#2d76ff"/>
      <stop offset="100%" stop-color="#0ea5e9"/>
    </linearGradient>
    <linearGradient id="s-teal" x1="0%" y1="0%" x2="0%" y2="100%">
      <stop offset="0%" stop-color="#51f0dc"/>
      <stop offset="100%" stop-color="#00a8b5"/>
    </linearGradient>
  </defs>
  <rect width="72" height="88" rx="18" fill="#06152a"/>
  <path d="M58 15 C58 6 47 2 35 2 C19 2 8 12 8 25 C8 37 19 43 35 43"
        stroke="url(#s-blue)" stroke-width="10" fill="none" stroke-linecap="round"/>
  <path d="M35 43 C51 43 64 49 64 61 C64 75 51 82 35 82 C20 82 10 75 9 64"
        stroke="url(#s-blue)" stroke-width="10" fill="none" stroke-linecap="round"/>
  <rect x="18" y="51" width="8" height="24" rx="2" fill="url(#s-teal)"/>
  <rect x="30" y="43" width="8" height="32" rx="2" fill="url(#s-teal)"/>
  <rect x="42" y="34" width="8" height="41" rx="2" fill="url(#s-teal)"/>
  <rect x="54" y="25" width="8" height="50" rx="2" fill="url(#s-teal)"/>
</svg>
