<?xml version="1.0" encoding="UTF-8"?>
<svg width="100pt" height="100pt" version="1.1" viewBox="0 0 100 100" xmlns="http://www.w3.org/2000/svg">
 <!-- Calculator body -->
 <path d="m84.383 1.4453h-68.766c-3.3281 0.003907-6.0234 2.6992-6.0312 6.0273v85.055c0.007812 3.3281 2.7031 6.0234 6.0312 6.0273h68.766c3.3281-0.003907 6.0273-2.6992 6.0312-6.0312v-85.051c-0.007812-3.3281-2.7031-6.0234-6.0312-6.0273zm3.2773 91.086v-0.003906c-0.003906 1.8125-1.4688 3.2773-3.2773 3.2812h-68.766c-1.8086-0.003906-3.2734-1.4688-3.2773-3.2812v-85.055c0.003906-1.8086 1.4688-3.2773 3.2773-3.2773h68.766c1.8086 0 3.2734 1.4688 3.2773 3.2773zm-5.0781-84.742h-65.164c-1.2578 0.003907-2.2734 1.0195-2.2773 2.2773v13.332c0.007813 1.2539 1.0234 2.2656 2.2773 2.2695h65.164c1.2578-0.003907 2.2734-1.0195 2.2773-2.2773v-13.332c-0.007813-1.2539-1.0234-2.2656-2.2773-2.2695zm-0.47266 15.129h-64.215v-12.375h64.215zm-54.109 8.1914h-9.3672c-1.7656 0.003906-3.1953 1.4336-3.1953 3.1992v6c0 1.7617 1.4297 3.1914 3.1953 3.1953h9.3672c1.7656-0.003906 3.1953-1.4336 3.1953-3.1953v-6c0-1.7656-1.4297-3.1953-3.1953-3.1992zm0.44531 9.1992v0.003906c0 0.24609-0.19922 0.44531-0.44531 0.44531h-9.3672c-0.24609 0-0.44531-0.19922-0.44531-0.44531v-6c0-0.24609 0.19922-0.44531 0.44531-0.44531h9.3672c0.24609 0.003906 0.44141 0.19922 0.44531 0.44531zm17.348-9.1992h-9.3711c-1.7656 0.003906-3.1953 1.4297-3.1992 3.1953v6c0 1.7617 1.4297 3.1914 3.1953 3.1953h9.3711c1.7656-0.003906 3.1953-1.4336 3.1953-3.1953v-6c-0.003906-1.7617-1.4297-3.1914-3.1914-3.1953zm0.44531 9.1992-0.003906 0.003906c0 0.24609-0.19922 0.44531-0.44141 0.44531h-9.3711c-0.24609 0-0.44531-0.19922-0.44531-0.44531v-6c0-0.24609 0.19922-0.44531 0.44531-0.44531h9.3711c0.24219 0 0.44141 0.19922 0.44141 0.44531zm17.34-9.1992h-9.3711c-1.7617 0.003906-3.1914 1.4336-3.1953 3.1992v6c0.003906 1.7617 1.4336 3.1914 3.1953 3.1953h9.3711c1.7656 0 3.1992-1.4297 3.1992-3.1953v-6c0-1.7656-1.4336-3.1953-3.1992-3.1992zm0.44531 9.1992v0.003906c0 0.24609-0.19922 0.44531-0.44531 0.44531h-9.3711c-0.24219 0-0.44141-0.19922-0.44141-0.44531v-6c0-0.24609 0.19922-0.44531 0.44141-0.44531h9.3711c0.24609 0 0.44531 0.19922 0.44531 0.44531zm17.344-9.1992h-9.3672c-1.7656 0.003906-3.1953 1.4336-3.1953 3.1992v6c0 1.7617 1.4297 3.1914 3.1953 3.1953h9.3711c1.7656-0.003906 3.1953-1.4336 3.1953-3.1953v-6c0-1.7656-1.4336-3.1953-3.1992-3.1992zm0.44531 9.1992v0.003906c0 0.24609-0.19922 0.44531-0.44531 0.44531h-9.3672c-0.24609 0-0.44531-0.19922-0.44531-0.44531v-6c0.003906-0.24609 0.19922-0.44141 0.44531-0.44531h9.3711c0.24609 0 0.44531 0.19922 0.44531 0.44531zm-53.812 6.3594h-9.3672c-1.7656 0-3.1953 1.4297-3.1953 3.1953v6c0 1.7656 1.4297 3.1953 3.1953 3.1953h9.3672c1.7656 0 3.1953-1.4297 3.1953-3.1953v-6c0-1.7656-1.4297-3.1953-3.1953-3.1953zm0.44531 9.1992c0 0.24609-0.19922 0.44531-0.44531 0.44531h-9.3672c-0.24609 0-0.44531-0.19922-0.44531-0.44531v-6c0-0.24609 0.19922-0.44531 0.44531-0.44531h9.3672c0.24609 0.003906 0.44141 0.20312 0.44531 0.44531zm17.348-9.1992h-9.3711c-1.7656 0-3.1953 1.4258-3.1992 3.1914v6c0 1.7617 1.4297 3.1914 3.1953 3.1953h9.3711c1.7656-0.003907 3.1953-1.4336 3.1953-3.1953v-6c-0.003906-1.7617-1.4297-3.1875-3.1914-3.1914zm0.44531 9.1992h-0.003906c0 0.24609-0.19922 0.44531-0.44141 0.44531h-9.3711c-0.24609 0-0.44531-0.19922-0.44531-0.44531v-6c0-0.24609 0.19922-0.44531 0.44531-0.44531h9.3711c0.24219 0 0.44141 0.19922 0.44141 0.44531zm17.34-9.1992h-9.3711c-1.7617 0-3.1914 1.4297-3.1953 3.1953v6c0.003906 1.7656 1.4336 3.1953 3.1953 3.1953h9.3711c1.7656 0 3.1992-1.4297 3.1992-3.1953v-6c0-1.7656-1.4336-3.1953-3.1992-3.1953zm0.44531 9.1992c0 0.24609-0.19922 0.44531-0.44531 0.44531h-9.3711c-0.24219 0-0.44141-0.19922-0.44141-0.44531v-6c0-0.24609 0.19922-0.44531 0.44141-0.44531h9.3711c0.24609 0 0.44531 0.19922 0.44531 0.44531zm17.344-9.1992h-9.3672c-1.7656 0-3.1953 1.4297-3.1953 3.1953v6c0 1.7656 1.4297 3.1953 3.1953 3.1953h9.3711c1.7656 0 3.1953-1.4297 3.1953-3.1953v-6c0-1.7656-1.4336-3.1953-3.1992-3.1953zm0.44531 9.1992c0 0.24609-0.19922 0.44531-0.44531 0.44531h-9.3672c-0.24609 0-0.44531-0.19922-0.44531-0.44531v-6c0.003906-0.24219 0.19922-0.44141 0.44531-0.44531h9.3711c0.24609 0 0.44531 0.19922 0.44531 0.44531zm-53.812 6.3555h-9.3672c-1.7656 0.003906-3.1953 1.4336-3.1953 3.1953v6c0 1.7656 1.4297 3.1953 3.1953 3.1953h9.3672c1.7656 0 3.1953-1.4297 3.1953-3.1953v-6c0-1.7617-1.4297-3.1914-3.1953-3.1953zm0.44531 9.1992c0 0.24609-0.19922 0.44531-0.44531 0.44531h-9.3672c-0.24609 0-0.44531-0.19922-0.44531-0.44531v-6c0-0.24219 0.19922-0.44141 0.44531-0.44141h9.3672c0.24609 0 0.44141 0.19922 0.44531 0.44141zm17.348-9.1992h-9.3711c-1.7656 0-3.1953 1.4297-3.1992 3.1914v6c0 1.7656 1.4297 3.1953 3.1953 3.1953h9.3711c1.7656 0 3.1953-1.4297 3.1953-3.1953v-6c-0.003906-1.7617-1.4297-3.1875-3.1914-3.1914zm0.44531 9.1992h-0.003906c0 0.24609-0.19922 0.44531-0.44141 0.44531h-9.3711c-0.24609 0-0.44531-0.19922-0.44531-0.44531v-6c0-0.24219 0.19922-0.44141 0.44531-0.44141h9.3711c0.24219 0 0.44141 0.19922 0.44141 0.44141zm17.34-9.1992h-9.3711c-1.7617 0.003906-3.1914 1.4336-3.1953 3.1953v6c0.003906 1.7656 1.4336 3.1953 3.1953 3.1953h9.3711c1.7656 0 3.1992-1.4297 3.1992-3.1953v-6c0-1.7656-1.4336-3.1953-3.1992-3.1953zm0.44531 9.1992c0 0.24609-0.19922 0.44531-0.44531 0.44531h-9.3711c-0.24219 0-0.44141-0.19922-0.44141-0.44531v-6c0-0.24219 0.19922-0.44141 0.44141-0.44141h9.3711c0.24609 0 0.44531 0.19922 0.44531 0.44141zm-36.023 6.3555h-9.3672c-1.7656 0.003906-3.1953 1.4336-3.1953 3.1953v6c0 1.7656 1.4297 3.1953 3.1953 3.1992h9.3672c1.7656-0.003906 3.1953-1.4336 3.1953-3.1992v-6c0-1.7617-1.4297-3.1914-3.1953-3.1953zm0.44531 9.1992v0.003907c0 0.24219-0.19922 0.44141-0.44531 0.44141h-9.3672c-0.24609 0-0.44531-0.19922-0.44531-0.44141v-6c0-0.24609 0.19922-0.44531 0.44531-0.44531h9.3672c0.24609 0.003906 0.44141 0.19922 0.44531 0.44531zm17.348-9.1992h-9.3711c-1.7656 0-3.1953 1.4297-3.1992 3.1914v6c0 1.7656 1.4297 3.1953 3.1953 3.1953h9.3711c1.7656 0 3.1953-1.4297 3.1953-3.1953v-6c-0.003906-1.7617-1.4297-3.1875-3.1914-3.1914zm0.44531 9.1992-0.003906 0.003907c0 0.24219-0.19922 0.44141-0.44141 0.44141h-9.3711c-0.24609 0-0.44531-0.19922-0.44531-0.44141v-6c0-0.24609 0.19922-0.44531 0.44531-0.44531h9.3711c0.24219 0 0.44141 0.19922 0.44141 0.44531zm17.34-9.1992h-9.3711c-1.7617 0.003906-3.1914 1.4336-3.1953 3.1953v6c0.003906 1.7656 1.4336 3.1953 3.1953 3.1992h9.3711c1.7656-0.003906 3.1992-1.4336 3.1992-3.1992v-6c0-1.7617-1.4336-3.1953-3.1992-3.1953zm0.44531 9.1992v0.003907c0 0.24219-0.19922 0.44141-0.44531 0.44141h-9.3711c-0.24219 0-0.44141-0.19922-0.44141-0.44141v-6c0-0.24609 0.19922-0.44531 0.44141-0.44531h9.3711c0.24609 0 0.44531 0.19922 0.44531 0.44531zm17.344-24.754h-9.3672c-1.7656 0.003906-3.1953 1.4336-3.1953 3.1953v21.555c0 1.7656 1.4297 3.1953 3.1953 3.1992h9.3711c1.7656-0.003906 3.1953-1.4336 3.1953-3.1992v-21.555c0-1.7656-1.4336-3.1953-3.1992-3.1953zm0.44531 24.758c0 0.24219-0.19922 0.44141-0.44531 0.44141h-9.3672c-0.24609 0-0.44531-0.19922-0.44531-0.44141v-21.559c0.003906-0.24219 0.19922-0.44141 0.44531-0.44141h9.3711c0.24609 0 0.44531 0.19922 0.44531 0.44141zm-9.7461-67.777v-0.003906c0-0.36328 0.14453-0.71484 0.40234-0.97656 0.25781-0.25781 0.60938-0.40234 0.97656-0.40234h4.6016c0.74219 0.019532 1.3359 0.62891 1.3359 1.375 0 0.74609-0.59375 1.3555-1.3359 1.375h-4.6016c-0.36719 0.003907-0.71875-0.14062-0.97656-0.40234-0.25781-0.25781-0.40234-0.60547-0.40234-0.97266z"/>
 
 <!-- Bell curve inside display - scaled and positioned -->
 <g transform="translate(18, 10) scale(0.65)">
   <path d="m98.223 80.777h-0.77734c-34.668-5.668-27.668-61.777-46.891-61.777-20.109 0.44531-10.555 53.777-47.223 61.777v-63.887c0-0.10938-0.10938-0.33203-0.33203-0.33203-0.22266-0.003906-0.33203 0.10938-0.33203 0.33203v64.332c0 0.22266 0.22266 0.44531 0.44531 0.44531h95.109c0.22266 0 0.44531-0.22266 0.44531-0.44531-0.11328-0.22266-0.22266-0.44531-0.44531-0.44531z" opacity="0.85"/>
 </g>
</svg>

