<?xml version="1.0" encoding="UTF-8"?>
<svg width="100pt" height="100pt" version="1.1" viewBox="0 0 100 100" xmlns="http://www.w3.org/2000/svg">
 <defs>
  <clipPath id="a">
   <path d="m18.512 20h62.977v60h-62.977z"/>
  </clipPath>
 </defs>
 <g clip-path="url(#a)">
  <path d="m34.254 71.367h21.93c0.93359 0 1.6875-0.75391 1.6875-1.6875v-39.359c0-0.93359-0.75391-1.6875-1.6875-1.6875h-21.93v-6.7461c0-0.62109 0.50391-1.125 1.125-1.125h44.984c0.62109 0 1.125 0.50391 1.125 1.125v56.227c0 0.62109-0.50391 1.125-1.125 1.125h-44.984c-0.62109 0-1.125-0.50391-1.125-1.125zm-15.742-6.7852 7.8438-14.305c0.09375-0.16797 0.09375-0.375 0-0.54297l-7.8438-14.301v-1.7383c0-0.93359 0.75391-1.6875 1.6875-1.6875h32.613c0.92969 0 1.6875 0.75391 1.6875 1.6875v32.609c0 0.93359-0.75781 1.6875-1.6875 1.6875h-32.613c-0.93359 0-1.6875-0.75391-1.6875-1.6875zm13.992-25.828h-4.9961l6.4023 11.707-6.4023 10.785h4.6719l4.2109-7.7734 4.1133 7.7734h4.9961l-6.3984-11.016 6.3984-11.477h-4.668l-4.2109 8.2695z" fill-rule="evenodd"/>
 </g>
</svg>
