<?xml version="1.0" encoding="UTF-8"?>
<svg width="100pt" height="100pt" version="1.1" viewBox="0 0 100 100" xmlns="http://www.w3.org/2000/svg">
 <path d="m48.918 35.312h3.3281v32.684h-3.3281z"/>
 <path d="m52.645 38.277h3.3281v29.719h-3.3281z"/>
 <path d="m56.371 43.93h3.3281v24.09h-3.3281z"/>
 <path d="m60.102 50.16h3.3281v17.836h-3.3281z"/>
 <path d="m63.828 56.254h3.3281v11.742h-3.3281z"/>
 <path d="m67.555 59.98h3.3281v8.0156h-3.3281z"/>
 <path d="m97.754 68.457c-11.742 0-20.703-3.1445-27.355-9.5977-5.6719-5.5117-8.6367-12.465-11.043-18.074-2.5664-6.0312-4.4297-10.379-8.1367-10.379-3.7461 0-6.0312 4.6484-8.8984 10.543-2.7266 5.5703-6.1133 12.523-12.023 17.996-6.9336 6.4141-15.891 9.5391-27.375 9.5391v-1.4023c25.07 0 32.625-15.449 38.137-26.734 3.0859-6.332 5.5312-11.324 10.16-11.324s6.7539 4.9492 9.418 11.242c4.8281 11.324 11.441 26.812 37.113 26.812z"/>
 <path d="m71.301 64.25h3.3281v3.7461h-3.3281z"/>
 <path d="m45.172 38.277h3.3281v29.719h-3.3281z"/>
 <path d="m41.441 43.93h3.3281v24.09h-3.3281z"/>
 <path d="m37.715 50.16h3.3281v17.836h-3.3281z"/>
 <path d="m33.988 56.254h3.3281v11.742h-3.3281z"/>
 <path d="m30.262 59.98h3.3281v8.0156h-3.3281z"/>
 <path d="m26.512 64.25h3.3281v3.7461h-3.3281z"/>
 <path d="m2.8438 68.879h94.949v0.80078h-94.949z"/>
</svg>
