<svg viewBox="0 -2 300 88" width="300" height="88" xmlns="http://www.w3.org/2000/svg" role="img" aria-label="Statistico Interactive">
  <defs>
    <linearGradient id="logoBlue" x1="0%" y1="0%" x2="0%" y2="100%">
      <stop offset="0%" stop-color="#3d8aff"/>
      <stop offset="100%" stop-color="#0ea5e9"/>
    </linearGradient>
    <linearGradient id="logoGaussFill" x1="0" y1="0" x2="0" y2="1">
      <stop offset="0%" stop-color="#3d8aff" stop-opacity="0.24"/>
      <stop offset="100%" stop-color="#0ea5e9" stop-opacity="0.04"/>
    </linearGradient>
    <radialGradient id="logoSlider" cx="34%" cy="30%" r="72%">
      <stop offset="0%" stop-color="#9fd7ff"/>
      <stop offset="55%" stop-color="#3d8aff"/>
      <stop offset="100%" stop-color="#0ea5e9"/>
    </radialGradient>
    <filter id="logoCurveShadow" x="-20%" y="-20%" width="160%" height="160%">
      <feDropShadow dx="2" dy="3" stdDeviation="2" flood-color="#001020" flood-opacity="0.35"/>
    </filter>
  </defs>
  <g>
    <path d="M8 76 C20 76 24 12 38 12 C52 12 56 76 68 76 L8 76 Z" fill="url(#logoGaussFill)"/>
    <path d="M6 76 H70" stroke="#001838" stroke-width="2.2" stroke-linecap="round" opacity="0.22"/>
    <path d="M8 76 C20 76 24 12 38 12 C52 12 56 76 68 76" stroke="#001838" stroke-width="6.5" fill="none" stroke-linecap="round" opacity="0.18" transform="translate(2.2,2.8)"/>
    <path d="M8 76 C20 76 24 12 38 12 C52 12 56 76 68 76" stroke="url(#logoBlue)" stroke-width="4.8" fill="none" stroke-linecap="round" filter="url(#logoCurveShadow)"/>
    <path d="M38 16 V76" stroke="url(#logoBlue)" stroke-width="1.8" stroke-linecap="round" opacity="0.38"/>
    <!-- Subtle human element: tiny analyst at a desk under the right slope -->
    <g stroke="url(#logoBlue)" stroke-width="1.6" stroke-linecap="round" stroke-linejoin="round" fill="none" opacity="0.55">
      <circle cx="45" cy="59.5" r="2.3" fill="url(#logoBlue)" stroke="none"/>
      <path d="M45 62.2 V68.5 L50 68.5 V76"/>
      <path d="M45.2 64.2 L51 66.9"/>
      <path d="M51.5 68.4 H58.5 M57 68.4 V76"/>
      <path d="M53.5 68.2 L55.8 63.6"/>
    </g>
  </g>
  <text x="88" y="37" font-family="Segoe UI, Arial, sans-serif" font-size="24" font-weight="800" letter-spacing="7" fill="#0b1c33">STATISTICO</text>
  <g>
    <line x1="92" y1="63" x2="118" y2="63" stroke="#0b1c33" stroke-width="1.8" stroke-linecap="round" opacity="0.75"/>
    <text x="191" y="68" font-family="Segoe UI, Arial, sans-serif" font-size="15" font-weight="800" letter-spacing="4.6" text-anchor="middle" fill="#0b1c33" opacity="0.9">INTERACTIVE</text>
    <line x1="264" y1="63" x2="296" y2="63" stroke="#0b1c33" stroke-width="1.8" stroke-linecap="round" opacity="0.75"/>
    <circle cx="282" cy="63" r="5.2" fill="url(#logoSlider)" stroke="rgba(8,20,44,.55)" stroke-width="0.85"/>
    <circle cx="282" cy="63" r="2.15" fill="none" stroke="rgba(255,255,255,.68)" stroke-width="0.95"/>
    <circle cx="280.6" cy="61.6" r="0.9" fill="rgba(255,255,255,.52)"/>
  </g>
</svg>
